REM DIRINDEX 1\2\3,1\2\4,1\2\5,1\2\6
REM DIRNAME folder01,folder02,folder03,folder04,folder05,folder06
TITLE ""
FILE "164 164.mp3" MP3
  TRACK 01 AUDIO
    TITLE "0:"
    INDEX 01 00:00:00
  TRACK 02 AUDIO
    TITLE "3:cjc157_5998"
    INDEX 01 00:00:11
  TRACK 03 AUDIO
    TITLE "0:"
    INDEX 01 00:02:00
  TRACK 04 AUDIO
    TITLE "4:cjc157_5999"
    INDEX 01 00:02:45
  TRACK 05 AUDIO
    TITLE "0:"
    INDEX 01 00:04:19
  TRACK 06 AUDIO
    TITLE "5:cjc157_6000"
    INDEX 01 00:04:66
  TRACK 07 AUDIO
    TITLE "0:"
    INDEX 01 00:08:23
  TRACK 08 AUDIO
    TITLE "3:cjc157_6001"
    INDEX 01 00:08:68
  TRACK 09 AUDIO
    TITLE "0:"
    INDEX 01 00:10:19
  TRACK 10 AUDIO
    TITLE "4:cjc157_6002"
    INDEX 01 00:10:65
  TRACK 11 AUDIO
    TITLE "0:"
    INDEX 01 00:12:09
  TRACK 12 AUDIO
    TITLE "5:cjc157_6003"
    INDEX 01 00:12:56
  TRACK 13 AUDIO
    TITLE "0:"
    INDEX 01 00:15:72
  TRACK 14 AUDIO
    TITLE "5:cjc157_6004"
    INDEX 01 00:16:48
  TRACK 15 AUDIO
    TITLE "0:"
    INDEX 01 00:18:68
  TRACK 16 AUDIO
    TITLE "3:cjc157_6005"
    INDEX 01 00:19:38
  TRACK 17 AUDIO
    TITLE "0:"
    INDEX 01 00:21:06
  TRACK 18 AUDIO
    TITLE "4:cjc157_6006"
    INDEX 01 00:21:53
  TRACK 19 AUDIO
    TITLE "0:"
    INDEX 01 00:22:74
  TRACK 20 AUDIO
    TITLE "5:cjc157_6007"
    INDEX 01 00:23:44
  TRACK 21 AUDIO
    TITLE "0:"
    INDEX 01 00:27:59
  TRACK 22 AUDIO
    TITLE "5:cjc157_6008"
    INDEX 01 00:28:33
  TRACK 23 AUDIO
    TITLE "0:"
    INDEX 01 00:32:33
  TRACK 24 AUDIO
    TITLE "3:cjc157_6009"
    INDEX 01 00:33:07
  TRACK 25 AUDIO
    TITLE "0:"
    INDEX 01 00:34:47
  TRACK 26 AUDIO
    TITLE "4:cjc157_6010"
    INDEX 01 00:35:14
  TRACK 27 AUDIO
    TITLE "0:"
    INDEX 01 00:36:21
  TRACK 28 AUDIO
    TITLE "5:cjc157_6011"
    INDEX 01 00:37:03
  TRACK 29 AUDIO
    TITLE "0:"
    INDEX 01 00:40:32
  TRACK 30 AUDIO
    TITLE "3:cjc157_6012"
    INDEX 01 00:41:02
  TRACK 31 AUDIO
    TITLE "0:"
    INDEX 01 00:43:01
  TRACK 32 AUDIO
    TITLE "4:cjc157_6013"
    INDEX 01 00:43:46
  TRACK 33 AUDIO
    TITLE "0:"
    INDEX 01 00:45:41
  TRACK 34 AUDIO
    TITLE "5:cjc157_6014"
    INDEX 01 00:46:13
  TRACK 35 AUDIO
    TITLE "0:"
    INDEX 01 00:49:61
  TRACK 36 AUDIO
    TITLE "3:cjc157_6015"
    INDEX 01 00:50:33
  TRACK 37 AUDIO
    TITLE "0:"
    INDEX 01 00:51:44
  TRACK 38 AUDIO
    TITLE "4:cjc157_6016"
    INDEX 01 00:52:16
  TRACK 39 AUDIO
    TITLE "0:"
    INDEX 01 00:53:74
  TRACK 40 AUDIO
    TITLE "5:cjc157_6017"
    INDEX 01 00:54:44
  TRACK 41 AUDIO
    TITLE "0:"
    INDEX 01 00:58:22
  TRACK 42 AUDIO
    TITLE "3:cjc157_6018"
    INDEX 01 00:58:67
  TRACK 43 AUDIO
    TITLE "0:"
    INDEX 01 01:00:43
  TRACK 44 AUDIO
    TITLE "4:cjc157_6019"
    INDEX 01 01:01:15
  TRACK 45 AUDIO
    TITLE "0:"
    INDEX 01 01:04:66
  TRACK 46 AUDIO
    TITLE "5:cjc157_6020"
    INDEX 01 01:05:34
  TRACK 47 AUDIO
    TITLE "0:"
    INDEX 01 01:08:56
  TRACK 48 AUDIO
    TITLE "3:cjc157_6021"
    INDEX 01 01:09:28
  TRACK 49 AUDIO
    TITLE "0:"
    INDEX 01 01:10:41
  TRACK 50 AUDIO
    TITLE "4:cjc157_6022"
    INDEX 01 01:11:11
  TRACK 51 AUDIO
    TITLE "0:"
    INDEX 01 01:12:30
  TRACK 52 AUDIO
    TITLE "5:cjc157_6023"
    INDEX 01 01:13:04
  TRACK 53 AUDIO
    TITLE "0:"
    INDEX 01 01:15:54
  TRACK 54 AUDIO
    TITLE "3:cjc157_6024"
    INDEX 01 01:16:26
  TRACK 55 AUDIO
    TITLE "0:"
    INDEX 01 01:17:53
  TRACK 56 AUDIO
    TITLE "4:cjc157_6025"
    INDEX 01 01:18:23
  TRACK 57 AUDIO
    TITLE "0:"
    INDEX 01 01:19:66
  TRACK 58 AUDIO
    TITLE "5:cjc157_6026"
    INDEX 01 01:20:42
  TRACK 59 AUDIO
    TITLE "0:"
    INDEX 01 01:25:47
  TRACK 60 AUDIO
    TITLE "3:cjc157_6027"
    INDEX 01 01:26:19
  TRACK 61 AUDIO
    TITLE "0:"
    INDEX 01 01:27:40
  TRACK 62 AUDIO
    TITLE "4:cjc157_6028"
    INDEX 01 01:28:14
  TRACK 63 AUDIO
    TITLE "0:"
    INDEX 01 01:29:27
  TRACK 64 AUDIO
    TITLE "5:cjc157_6029"
    INDEX 01 01:29:74
  TRACK 65 AUDIO
    TITLE "0:"
    INDEX 01 01:33:68
